<?xml version="1.0" encoding="utf-8"?>
<svg version="1.1" id="Layer_1" width="2600px" height="590px" xmlns="http://www.w3.org/2000/svg" x="0px" y="0px" enable-background="new 0 0 2599.572 589.566"
	 xml:space="preserve">
<g>
	<path fill="#F3AB1D" d="M2473.03,375.374l116.512,15.393c3.484,0.477,6.73-2.015,7.15-5.514
		c3.807-32.521,3.834-65.378,0.112-97.836c-0.406-3.484-3.652-5.976-7.151-5.514l-116.539,15.155
		c-3.414,0.448-5.821,3.568-5.43,6.998c2.31,21.361,2.281,42.939-0.056,64.321C2467.223,371.792,2469.602,374.925,2473.03,375.374"
		/>
	<path fill="#E52F8C" d="M2414.271,516.681l93.184,71.563c2.799,2.155,6.829,1.623,8.941-1.231
		c19.55-26.252,36.02-54.631,49.021-84.605c1.399-3.247-0.183-7.024-3.415-8.368l-108.507-45.144
		c-3.204-1.315-6.829,0.168-8.229,3.331c-8.647,19.646-19.465,38.342-32.213,55.666
		C2410.996,510.665,2411.515,514.554,2414.271,516.681"/>
	<path fill="#009782" d="M2453.3,223.619l108.591-44.906c3.26-1.344,4.842-5.121,3.442-8.368
		c-12.986-30.058-29.373-58.536-48.838-84.773c-2.113-2.841-6.157-3.372-8.956-1.245l-93.338,71.424
		c-2.743,2.099-3.247,5.988-1.203,8.787c12.678,17.311,23.439,36.02,32.087,55.736
		C2446.484,223.437,2450.081,224.948,2453.3,223.619"/>
	<path fill="#E51E25" d="M185.319,155.932L92.114,84.34c-2.784-2.141-6.843-1.623-8.956,1.231
		c-19.542,26.237-35.998,54.673-48.999,84.661c-1.414,3.232,0.147,7.012,3.408,8.369l108.5,45.129
		c3.211,1.33,6.829-0.168,8.221-3.344c8.662-19.648,19.473-38.315,32.234-55.653C188.565,161.949,188.055,158.059,185.319,155.932"
		/>
	<path fill="#A4C839" d="M126.532,297.225L10.021,281.818c-3.491-0.447-6.73,2.029-7.15,5.541
		c-3.785,32.515-3.834,65.372-0.098,97.837c0.399,3.499,3.631,5.962,7.137,5.542l116.525-15.17c3.443-0.447,5.836-3.555,5.458-7.024
		c-2.323-21.354-2.302-42.905,0.07-64.308C132.339,300.793,129.96,297.688,126.532,297.225"/>
	<path fill="#3797D3" d="M146.277,448.98L37.679,493.928c-3.268,1.343-4.835,5.121-3.436,8.34
		c12.979,30.059,29.366,58.493,48.81,84.745c2.113,2.827,6.164,3.387,8.956,1.231l93.345-71.396c2.756-2.071,3.253-5.962,1.21-8.788
		c-12.664-17.296-23.446-35.992-32.087-55.695C153.092,449.176,149.468,447.665,146.277,448.98"/>
	<path fill="#010101" d="M421.784,153.482c-108.773,0-187.48,83.542-187.48,183.577c0,116.146,81.164,182.141,176.013,182.141
		c19.416,0,44.465-2.49,59.361-8.815c3.344-1.399,5.29-4.981,5.29-8.593v-87.348c0-4.227-4.009-7.193-8.081-6.045
		c-9.754,2.826-22.236,6.101-43.598,6.101c-34.515,0-74.243-24.629-74.243-80.296c0-43.78,34.109-76.035,74.09-76.035
		c49.901,0,80.52,34.845,80.52,80.933v165.152c0,3.499,2.833,6.354,6.332,6.354h102.076c3.506,0,6.333-2.854,6.333-6.354V334.036
		C618.395,225.76,540.821,153.482,421.784,153.482 M1332.071,162.088h-102.069c-3.499,0-6.312,2.827-6.312,6.312v335.855
		c0,3.499,2.812,6.354,6.312,6.354h102.069c3.499,0,6.354-2.854,6.354-6.354V168.399
		C1338.425,164.915,1335.57,162.088,1332.071,162.088 M1281.037,0c-36.58,0-65.253,27.987-65.253,65.267
		c0,37.278,28.673,65.253,65.253,65.253c36.579,0,65.266-27.975,65.266-65.253C1346.303,27.987,1317.616,0,1281.037,0 M1456.014,0
		c-36.58,0-65.28,27.987-65.28,65.267c0,37.278,28.7,65.253,65.28,65.253c36.579,0,65.252-27.975,65.252-65.253
		C1521.266,27.987,1492.593,0,1456.014,0 M1507.048,162.088h-102.069c-3.513,0-6.325,2.827-6.325,6.312v335.855
		c0,3.499,2.812,6.354,6.325,6.354h102.069c3.499,0,6.34-2.854,6.34-6.354V168.399
		C1513.388,164.915,1510.547,162.088,1507.048,162.088 M2179.976,153.482c-100.74,0-185.263,81.919-185.263,182.848
		c0,100.923,84.648,182.869,185.263,182.869s185.275-83.625,185.275-182.869C2365.251,237.108,2280.743,153.482,2179.976,153.482
		 M2179.976,414.444c-44.29,0-77.413-34.593-77.413-78.113c0-43.485,33.123-78.078,77.413-78.078s77.427,34.593,77.427,78.078
		C2257.402,379.851,2224.266,414.444,2179.976,414.444 M1020.587,153.482c-38.021,0-73.824,15.631-102.434,46.893
		c-28.61-31.262-64.399-46.893-102.448-46.893c-79.631,0-142.812,50.461-142.812,134.073v216.699c0,3.499,2.84,6.354,6.318,6.354
		h102.105c3.477,0,6.332-2.854,6.332-6.354V299.619c0-22.684,16.526-35.712,36.559-35.712c20.039,0,36.579,13.07,36.579,35.712
		v204.636c0,3.499,2.841,6.354,6.332,6.354h102.091c3.478,0,6.297-2.854,6.297-6.354V299.619c0-22.642,16.562-35.712,36.594-35.712
		c20.039,0,36.565,13.028,36.565,35.712v204.636c0,3.499,2.834,6.354,6.332,6.354h102.084c3.498,0,6.325-2.854,6.325-6.354V287.556
		C1163.406,203.943,1100.238,153.482,1020.587,153.482 M1775.614,153.482c-19.955,0-38.286,4.548-51.553,8.844
		c-3.456,1.105-5.807,4.352-5.807,8.019v88.58c0,4.239,4.1,7.263,8.144,5.961c11.125-3.582,26.84-6.717,40.75-6.717
		c47.593,0,77.133,35.25,77.133,78.162c0,43.744-31.122,79.541-78.406,78.141c-42.723-1.287-76.224-35.432-76.224-78.141V14.932
		c0-3.499-2.841-6.326-6.325-6.326h-102.098c-3.484,0-6.312,2.827-6.312,6.326v318.096c0,109.795,74.517,186.172,193.631,186.172
		c103.734,0,190.481-81.946,190.481-183.596C1959.029,233.428,1889.312,153.482,1775.614,153.482"/>
</g>
</svg>
